<svg width="152" height="163" fill="none" xmlns="http://www.w3.org/2000/svg"><path d="M13.412 153.552L0 126.627h8.769l8.976 18.258 9.126-18.258h8.72l-18.15 36.307H8.619l4.793-9.382zm28.147-26.919h16.47c8.26 0 15.295 6.223 15.295 14.329 0 8.006-6.986 14.33-15.296 14.33H49.41v7.648h-7.85v-36.307zm16.416 21.006c4.285 0 7.546-3.112 7.546-6.682 0-3.57-3.469-6.682-7.749-6.682H49.41v13.358h8.566v.006zm31.818-21.006h7.344l16.01 36.307h-8.517l-1.884-4.184h-18.61l-1.782 4.184h-8.518l15.957-36.307zm9.841 24.624l-6.169-14.836-6.17 14.836h12.34zm19.272-24.624h7.851v14.175h17.441v-14.175H152v36.307h-7.802v-14.378h-17.441v14.378h-7.851v-36.307z" fill="#fff"/><path d="M96.607 19.841h6.816v-7.989l-6.816-3.939v14.373-2.445zm13.668-4.033v4.034h6.816v-.096l-6.816-3.938zm-20.557 4.343V3.938L82.902-.001v19.843h6.816v.31z" fill="#FF1010"/><path d="M117.09 19.842h-6.815v61.235l-33.329 19.24-33.088-19.101V43.532l6.852-3.96v37.812h.134l-.027.043 26.135 15.087.026-.042 26.338-15.205-.027-.048h.134V19.842h-6.816v53.422L76.925 84.626l-19.4-11.197V35.64l6.89-3.976v37.801l.016.005-.01.017 12.52 7.231.016-.027 12.755-7.365-.01-.02h.016V19.841h-6.816v45.545l-5.977 3.447-5.694-3.287V19.842l-3.437 2.012-.006-.01-30.745 17.75h-.006v45.54h.016l-.016.015 39.899 23.034.005.011.005-.005.016.01.016-.026L117.09 85.01l-.021-.042h.021V19.842z" fill="#fff"/></svg>