<svg width="46" height="63" fill="none" xmlns="http://www.w3.org/2000/svg"><path d="M34.23 11.402h3.916v-4.59L34.23 4.547v8.258-1.404zm7.853-2.318v2.318h3.916v-.055l-3.916-2.263zM30.27 11.58V2.263L26.356 0v11.402h3.916v.178z" fill="#DBE7FF"/><path d="M46 11.402h-3.916v35.187L22.932 57.644 3.92 46.67V25.015l3.938-2.276v21.728h.076l-.015.024 15.018 8.67.015-.025L38.085 44.4l-.015-.027h.076v-32.97H34.23V42.1l-11.31 6.53-11.147-6.435V20.48l3.959-2.284v21.72l.01.004-.007.009 7.195 4.155.009-.015 7.329-4.232-.006-.012h.01V11.402h-3.917v26.17l-3.435 1.982-3.272-1.89V11.403l-1.975 1.156-.003-.006-17.667 10.2H0V48.92h.01l-.01.009 22.926 13.235.004.006.003-.003.009.007.009-.016L46 48.848l-.012-.024H46V11.402z" fill="#DBE7FF"/></svg>