<svg width="55" height="44" fill="none" xmlns="http://www.w3.org/2000/svg"><path opacity=".3" d="M31.526 40.932L33.52 44C47.33 34.719 55 23.442 55 14.16 55 5.187 48.402.968 42.803.968 35.745.967 30.76 6.95 30.76 13.24c0 5.292 3.375 9.819 7.901 11.508 1.304.461 2.531.844 2.531 3.068 0 2.838-2.071 7.055-9.666 13.116zm-30.453 0L3.068 44c13.656-9.281 21.479-20.558 21.479-29.84 0-8.974-6.75-13.193-12.35-13.193C5.064.967 0 6.95 0 13.24c0 5.292 3.451 9.819 8.132 11.508 1.304.461 2.455.844 2.455 3.068 0 2.838-2.148 7.057-9.512 13.118l-.002-.002z" fill="#183D8B"/></svg>