<svg width="55" height="44" fill="none" xmlns="http://www.w3.org/2000/svg"><path opacity=".3" d="M23.474 3.068L21.48 0C7.67 9.281 0 20.558 0 29.84c0 8.974 6.598 13.193 12.197 13.193 7.058 0 12.043-5.984 12.043-12.273 0-5.293-3.375-9.819-7.901-11.508-1.304-.461-2.531-.844-2.531-3.068 0-2.838 2.072-7.055 9.666-13.116zm30.453 0L51.932 0C38.276 9.281 30.453 20.558 30.453 29.84c0 8.974 6.75 13.193 12.35 13.193C49.936 43.033 55 37.05 55 30.76c0-5.293-3.451-9.819-8.132-11.508-1.304-.461-2.455-.844-2.455-3.068 0-2.838 2.148-7.057 9.512-13.118l.002.002z" fill="#183D8B"/></svg>